<?xml version="1.0" standalone="no"?><!DOCTYPE svg PUBLIC "-//W3C//DTD SVG 1.1//EN" "http://www.w3.org/Graphics/SVG/1.1/DTD/svg11.dtd"><svg t="1722332195702" class="icon" viewBox="0 0 1024 1024" version="1.1" xmlns="http://www.w3.org/2000/svg" p-id="1471" xmlns:xlink="http://www.w3.org/1999/xlink" width="200" height="200"><path d="M862.254545 566.225455h-90.996363l19.316363-223.883637h-82.152727l-26.763636 302.778182h189.905454l-9.309091-78.894545zM269.498182 417.047273h108.916363v-74.705455H185.949091l-15.825455 190.370909h128.232728v37.701818H163.84l-11.403636 74.705455h227.374545v-187.810909h-113.803636l3.490909-40.261818zM413.323636 643.490909h90.996364l11.636364 40.261818 83.083636-1.396363-10.472727-38.865455H651.636364v-302.545454h-212.712728z m96.814546-226.443636h64.465454v153.367272h-74.938181z" fill="#409EFF" p-id="1472"></path><path d="M512 0a512 512 0 1 0 512 512A512 512 0 0 0 512 0z m0 930.909091a418.909091 418.909091 0 1 1 418.909091-418.909091 418.909091 418.909091 0 0 1-418.909091 418.909091z" fill="#409EFF" p-id="1473"></path></svg>